<svg xmlns="http://www.w3.org/2000/svg" width="32" height="32" viewBox="0 0 32 32" fill="none">
  <g filter="url(#filter0_i_claw)">
    <rect width="32" height="32" rx="10" fill="url(#paint0_linear_claw)"/>
    <rect width="32" height="32" rx="10" fill="white" fill-opacity="0.07" style="mix-blend-mode:plus-lighter"/>
  </g>
  <g filter="url(#filter1_ii_claw)">
    <rect x="1.75" y="1.75" width="28.5" height="28.5" rx="8" fill="url(#paint1_linear_claw)"/>
  </g>
  <!-- Lobster/claw icon -->
  <!-- Left claw -->
  <path d="M9.5 11.5C8.2 10 6 9.8 5.5 11.5C5 13.2 6.5 14.5 8 14.5C8.8 14.5 9.3 14 9.5 13.5" fill="#141414"/>
  <path d="M9.5 11.5C8.2 10 6 9.8 5.5 11.5C5 13.2 6.5 14.5 8 14.5C8.8 14.5 9.3 14 9.5 13.5" fill="url(#paint2_linear_claw)"/>
  <!-- Right claw -->
  <path d="M22.5 11.5C23.8 10 26 9.8 26.5 11.5C27 13.2 25.5 14.5 24 14.5C23.2 14.5 22.7 14 22.5 13.5" fill="#141414"/>
  <path d="M22.5 11.5C23.8 10 26 9.8 26.5 11.5C27 13.2 25.5 14.5 24 14.5C23.2 14.5 22.7 14 22.5 13.5" fill="url(#paint2_linear_claw)"/>
  <!-- Left arm -->
  <path d="M9.5 13C10 14.5 11 15.5 12 16.5" stroke="#141414" stroke-width="1.5" stroke-linecap="round"/>
  <path d="M9.5 13C10 14.5 11 15.5 12 16.5" stroke="url(#paint2_linear_claw)" stroke-width="1.5" stroke-linecap="round"/>
  <!-- Right arm -->
  <path d="M22.5 13C22 14.5 21 15.5 20 16.5" stroke="#141414" stroke-width="1.5" stroke-linecap="round"/>
  <path d="M22.5 13C22 14.5 21 15.5 20 16.5" stroke="url(#paint2_linear_claw)" stroke-width="1.5" stroke-linecap="round"/>
  <!-- Body -->
  <path d="M16 13C13 13 11 15 11 17.5C11 20 12.5 22 14.5 23L13.5 25.5C13.3 26 13.6 26.5 14 26.5C14.4 26.5 14.7 26.2 14.8 25.8L15.5 23.8C15.7 23.8 16 23.9 16 23.9C16 23.9 16.3 23.8 16.5 23.8L17.2 25.8C17.3 26.2 17.6 26.5 18 26.5C18.4 26.5 18.7 26 18.5 25.5L17.5 23C19.5 22 21 20 21 17.5C21 15 19 13 16 13Z" fill="#141414"/>
  <path d="M16 13C13 13 11 15 11 17.5C11 20 12.5 22 14.5 23L13.5 25.5C13.3 26 13.6 26.5 14 26.5C14.4 26.5 14.7 26.2 14.8 25.8L15.5 23.8C15.7 23.8 16 23.9 16 23.9C16 23.9 16.3 23.8 16.5 23.8L17.2 25.8C17.3 26.2 17.6 26.5 18 26.5C18.4 26.5 18.7 26 18.5 25.5L17.5 23C19.5 22 21 20 21 17.5C21 15 19 13 16 13Z" fill="url(#paint2_linear_claw)"/>
  <!-- Eyes -->
  <circle cx="14" cy="16.5" r="1" fill="white"/>
  <circle cx="18" cy="16.5" r="1" fill="white"/>
  <circle cx="14" cy="16.5" r="0.5" fill="#141414"/>
  <circle cx="18" cy="16.5" r="0.5" fill="#141414"/>
  <!-- Antennae -->
  <path d="M14 13L12.5 9.5" stroke="#141414" stroke-width="1" stroke-linecap="round"/>
  <path d="M14 13L12.5 9.5" stroke="url(#paint2_linear_claw)" stroke-width="1" stroke-linecap="round"/>
  <path d="M18 13L19.5 9.5" stroke="#141414" stroke-width="1" stroke-linecap="round"/>
  <path d="M18 13L19.5 9.5" stroke="url(#paint2_linear_claw)" stroke-width="1" stroke-linecap="round"/>
  <defs>
    <filter id="filter0_i_claw" x="0" y="0" width="32" height="32" filterUnits="userSpaceOnUse" color-interpolation-filters="sRGB">
      <feFlood flood-opacity="0" result="BackgroundImageFix"/>
      <feBlend mode="normal" in="SourceGraphic" in2="BackgroundImageFix" result="shape"/>
      <feColorMatrix in="SourceAlpha" type="matrix" values="0 0 0 0 0 0 0 0 0 0 0 0 0 0 0 0 0 0 127 0" result="hardAlpha"/>
      <feOffset/>
      <feGaussianBlur stdDeviation="0.49869"/>
      <feComposite in2="hardAlpha" operator="arithmetic" k2="-1" k3="1"/>
      <feColorMatrix type="matrix" values="0 0 0 0 0 0 0 0 0 0 0 0 0 0 0 0 0 0 0.1 0"/>
      <feBlend mode="normal" in2="shape" result="effect1_innerShadow_claw"/>
    </filter>
    <filter id="filter1_ii_claw" x="1.75" y="0.861111" width="28.5" height="30.2778" filterUnits="userSpaceOnUse" color-interpolation-filters="sRGB">
      <feFlood flood-opacity="0" result="BackgroundImageFix"/>
      <feBlend mode="normal" in="SourceGraphic" in2="BackgroundImageFix" result="shape"/>
      <feColorMatrix in="SourceAlpha" type="matrix" values="0 0 0 0 0 0 0 0 0 0 0 0 0 0 0 0 0 0 127 0" result="hardAlpha"/>
      <feOffset dy="-0.888889"/>
      <feGaussianBlur stdDeviation="0.888889"/>
      <feComposite in2="hardAlpha" operator="arithmetic" k2="-1" k3="1"/>
      <feColorMatrix type="matrix" values="0 0 0 0 0.92 0 0 0 0 0.16 0 0 0 0 0.16 0 0 0 0.1 0"/>
      <feBlend mode="normal" in2="shape" result="effect1_innerShadow_claw"/>
      <feColorMatrix in="SourceAlpha" type="matrix" values="0 0 0 0 0 0 0 0 0 0 0 0 0 0 0 0 0 0 127 0" result="hardAlpha"/>
      <feOffset dy="0.888889"/>
      <feGaussianBlur stdDeviation="0.888889"/>
      <feComposite in2="hardAlpha" operator="arithmetic" k2="-1" k3="1"/>
      <feColorMatrix type="matrix" values="0 0 0 0 1 0 0 0 0 0.45 0 0 0 0 0.2 0 0 0 0.1 0"/>
      <feBlend mode="normal" in2="effect1_innerShadow_claw" result="effect2_innerShadow_claw"/>
    </filter>
    <linearGradient id="paint0_linear_claw" x1="16" y1="0" x2="16" y2="32" gradientUnits="userSpaceOnUse">
      <stop stop-color="#FF6B35"/>
      <stop offset="0.35" stop-color="#EF0011"/>
      <stop offset="0.7" stop-color="#C50010"/>
      <stop offset="1" stop-color="#8B0000"/>
    </linearGradient>
    <linearGradient id="paint1_linear_claw" x1="16" y1="10.6562" x2="16" y2="30.25" gradientUnits="userSpaceOnUse">
      <stop stop-color="white"/>
      <stop offset="0.3" stop-color="#F7F7F7"/>
    </linearGradient>
    <linearGradient id="paint2_linear_claw" x1="17.8739" y1="7.84186" x2="13.7328" y2="23.2967" gradientUnits="userSpaceOnUse">
      <stop stop-color="#FF6B35"/>
      <stop offset="0.35" stop-color="#EF0011"/>
      <stop offset="0.7" stop-color="#C50010"/>
      <stop offset="1" stop-color="#8B0000"/>
    </linearGradient>
  </defs>
</svg>