<?xml version="1.0" encoding="UTF-8"?>
<svg xmlns="http://www.w3.org/2000/svg"
     width="233" height="233"
     viewBox="0 0 512 512"
     preserveAspectRatio="xMidYMid meet">

  <!-- single-tone fill that matches the old “M” -->
  <style>.pill{fill:#0E1017;}</style>

  <!-- full “S” artwork: no extra translate, no non-uniform scaling -->
  <!-- Row 0 -->
  <rect class="pill" x="80"  y="0"   width="140" height="63" rx="31.5"/>
  <rect class="pill" x="236" y="0"   width="140" height="63" rx="31.5"/>

  <!-- Row 1 -->
  <rect class="pill" x="0"   y="74"  width="140" height="64" rx="32"/>
  <rect class="pill" x="252" y="74"  width="140" height="64" rx="32"/>

  <!-- Row 2 -->
  <rect class="pill" x="0"   y="149" width="140" height="64" rx="32"/>

  <!-- Row 3 -->
  <rect class="pill" x="80"  y="224" width="144" height="64" rx="32"/>
  <rect class="pill" x="240" y="224" width="192" height="64" rx="32"/>

  <!-- Row 4 -->
  <rect class="pill" x="376" y="299" width="136" height="64" rx="32"/>

  <!-- Row 5 -->
  <rect class="pill" x="120" y="374" width="136" height="64" rx="32"/>
  <rect class="pill" x="376" y="374" width="136" height="64" rx="32"/>

  <!-- Row 6 -->
  <rect class="pill" x="136" y="449" width="140" height="63" rx="31.5"/>
  <rect class="pill" x="292" y="449" width="140" height="63" rx="31.5"/>
</svg>
