<?xml version="1.0" encoding="UTF-8"?>
<svg xmlns="http://www.w3.org/2000/svg"
     width="36" height="36" viewBox="0 0 512 512" fill="none">

  <!-- single gold-to-amber gradient shared by every pill -->
  <defs>
    <linearGradient id="s-grad" x1="0" y1="0" x2="0" y2="1">
      <stop offset="0%"   stop-color="#FFBC47"/>
      <stop offset="100%" stop-color="#C97700"/>
    </linearGradient>
  </defs>

  <!-- the “S” from the 512-grid artwork, scaled & shifted so its
       visible pixels sit inside the old-M bounding box (131-381 × 57-455) -->
  <g transform="translate(131 131) scale(0.48828125)">
    <rect x="80"  y="0"   width="140" height="63" rx="31.5" fill="url(#s-grad)"/>
    <rect x="236" y="0"   width="140" height="63" rx="31.5" fill="url(#s-grad)"/>

    <rect x="0"   y="74"  width="140" height="64" rx="32"   fill="url(#s-grad)"/>
    <rect x="252" y="74"  width="140" height="64" rx="32"   fill="url(#s-grad)"/>

    <rect x="0"   y="149" width="140" height="64" rx="32"   fill="url(#s-grad)"/>

    <rect x="80"  y="224" width="144" height="64" rx="32"   fill="url(#s-grad)"/>
    <rect x="240" y="224" width="192" height="64" rx="32"   fill="url(#s-grad)"/>

    <rect x="376" y="299" width="136" height="64" rx="32"   fill="url(#s-grad)"/>

    <rect x="120" y="374" width="136" height="64" rx="32"   fill="url(#s-grad)"/>
    <rect x="376" y="374" width="136" height="64" rx="32"   fill="url(#s-grad)"/>

    <rect x="136" y="449" width="140" height="63" rx="31.5" fill="url(#s-grad)"/>
    <rect x="292" y="449" width="140" height="63" rx="31.5" fill="url(#s-grad)"/>
  </g>
</svg>
