<?xml version="1.0" standalone="no"?>
<!DOCTYPE svg PUBLIC "-//W3C//DTD SVG 20010904//EN"
 "http://www.w3.org/TR/2001/REC-SVG-20010904/DTD/svg10.dtd">
<svg version="1.0" xmlns="http://www.w3.org/2000/svg"
 width="252.000000pt" height="252.000000pt" viewBox="0 0 252.000000 252.000000"
 preserveAspectRatio="xMidYMid meet">
<metadata>
Created by potrace 1.10, written by Peter Selinger 2001-2011
</metadata>
<g transform="translate(0.000000,252.000000) scale(0.100000,-0.100000)"
fill="#000000" stroke="none">
<path d="M1149 2372 c-60 -39 -138 -126 -177 -200 -85 -159 -122 -367 -91
-514 26 -122 125 -266 225 -324 l43 -25 3 -167 c2 -92 3 -168 2 -170 -1 -1
-19 26 -42 60 -22 35 -66 89 -99 120 -159 156 -314 219 -541 222 l-124 1 -25
-30 c-24 -27 -25 -34 -19 -100 23 -271 184 -499 441 -625 84 -41 196 -75 280
-85 28 -3 64 -8 81 -11 l31 -4 8 -163 c4 -94 13 -175 20 -194 24 -56 76 -69
121 -29 l28 23 4 187 4 186 38 0 c102 0 299 55 397 111 210 121 348 350 370
615 6 70 5 72 -21 89 -21 14 -55 19 -149 23 -142 5 -223 -10 -326 -61 -81 -39
-233 -186 -275 -264 -15 -29 -25 -53 -22 -53 3 0 22 25 42 55 20 30 41 52 46
49 4 -3 7 0 6 8 -2 7 2 12 9 11 7 -2 10 4 6 13 -3 8 -2 14 3 12 5 -2 10 2 12
7 6 22 67 75 80 70 7 -2 11 -1 7 4 -8 14 52 54 67 45 7 -4 10 -4 6 1 -21 23
173 88 250 84 20 -1 47 1 60 5 12 4 22 4 22 -1 0 -4 29 -8 64 -8 79 -1 93 -11
90 -67 -8 -101 -13 -136 -29 -178 -9 -25 -18 -56 -21 -69 -6 -30 -64 -145 -75
-149 -5 -2 -9 -10 -9 -17 0 -8 -9 -19 -20 -25 -11 -6 -19 -16 -17 -23 1 -7 -5
-11 -13 -9 -8 2 -12 1 -8 -3 9 -10 -24 -45 -35 -38 -6 3 -7 2 -4 -4 8 -13 -80
-86 -95 -77 -7 4 -8 3 -4 -4 8 -13 -113 -73 -194 -96 -30 -9 -102 -22 -159
-30 -60 -9 -108 -21 -112 -28 -8 -13 -13 -59 -10 -86 1 -8 -3 -20 -10 -28 -8
-10 -8 -14 0 -14 7 0 10 -31 7 -97 -2 -54 -5 -100 -6 -103 -1 -3 -2 -9 -1 -14
3 -17 -11 -46 -20 -41 -5 4 -9 1 -9 -4 0 -6 -10 -11 -23 -11 -26 0 -55 30 -49
49 3 9 0 11 -8 6 -9 -5 -11 11 -8 68 2 41 0 73 -4 70 -5 -2 -8 41 -8 95 0 68
-4 103 -12 110 -7 5 -35 12 -63 16 -105 14 -125 18 -120 26 3 4 -4 6 -15 3
-26 -7 -181 47 -173 60 3 6 1 7 -5 3 -14 -9 -63 14 -55 27 3 6 1 7 -6 3 -15
-10 -144 82 -135 96 4 6 3 8 -3 5 -29 -18 -206 224 -187 255 4 6 3 8 -3 5 -13
-8 -48 107 -38 123 5 8 4 11 -2 7 -6 -4 -13 12 -17 40 -9 68 -7 123 4 123 5 0
9 6 7 13 -1 7 7 11 22 9 15 -3 21 0 16 8 -12 20 210 5 310 -22 101 -26 292
-138 278 -162 -3 -6 -3 -8 2 -4 9 8 35 -15 35 -32 0 -6 5 -8 10 -5 6 3 10 -1
10 -10 0 -9 4 -14 9 -11 9 6 26 -22 23 -36 -1 -5 4 -8 11 -8 6 0 27 -23 45
-51 18 -28 38 -49 45 -46 9 3 12 51 12 177 l0 174 -35 24 c-19 13 -34 29 -32
35 2 7 0 9 -3 5 -11 -10 -47 11 -40 23 4 5 1 8 -7 7 -7 -2 -12 3 -10 10 1 8
-2 11 -7 8 -12 -8 -57 54 -53 72 2 8 -1 11 -8 7 -12 -8 -64 101 -56 121 3 7 0
15 -7 17 -21 7 -15 238 7 329 11 42 23 75 28 72 4 -3 5 2 2 10 -6 15 31 96 50
108 6 4 11 15 11 25 0 10 5 17 12 16 8 -2 10 4 6 14 -4 11 -3 14 5 9 8 -5 12
0 12 14 0 13 4 19 12 14 6 -4 8 -3 5 3 -9 14 80 96 95 87 6 -4 8 -3 5 3 -9 15
67 37 104 29 17 -3 38 -14 46 -24 8 -9 11 -10 7 -3 -11 21 43 -19 85 -63 19
-20 32 -36 29 -36 -3 0 7 -14 23 -31 16 -17 26 -35 23 -40 -3 -5 -1 -9 4 -9
13 0 33 -50 26 -62 -4 -7 -2 -8 4 -4 11 6 17 -12 13 -36 0 -5 3 -8 7 -8 5 0 9
-7 10 -15 1 -8 3 -22 4 -30 1 -8 4 -15 8 -15 4 0 7 -6 8 -12 0 -7 8 -51 17
-98 14 -76 15 -158 2 -215 -13 -54 -41 -121 -56 -133 -12 -10 -12 -12 -1 -7 9
4 8 0 -3 -8 -10 -9 -20 -24 -22 -34 -1 -10 -8 -17 -15 -15 -6 1 -9 -1 -6 -6 7
-12 -38 -54 -48 -45 -4 5 -6 1 -4 -7 2 -8 -3 -14 -9 -13 -7 2 -12 -3 -10 -10
1 -6 -6 -11 -15 -11 -10 1 -16 -3 -15 -10 1 -6 -6 -10 -15 -10 -10 1 -16 -2
-15 -6 1 -5 -6 -15 -16 -22 -16 -12 -19 -29 -19 -126 0 -62 -4 -112 -9 -112
-5 0 -9 -5 -9 -11 0 -5 5 -7 10 -4 6 4 10 -12 10 -42 0 -35 3 -44 10 -33 5 8
10 81 10 162 l0 146 64 46 c146 104 229 287 211 466 -25 253 -145 473 -302
554 -49 25 -102 20 -154 -12z"/>
<path d="M1159 2203 c-35 -36 -64 -69 -64 -72 0 -3 -11 -28 -25 -56 -13 -27
-26 -54 -27 -60 -1 -5 -7 -30 -12 -55 -6 -25 -13 -56 -17 -70 -6 -24 -6 -161
0 -205 4 -35 54 -130 92 -173 19 -23 55 -54 79 -68 41 -24 46 -24 73 -10 16 8
33 12 37 8 5 -4 5 -2 1 5 -7 13 31 40 49 34 5 -1 7 1 3 5 -10 9 12 35 23 28 5
-3 8 -2 7 3 -4 13 33 63 43 57 5 -3 6 3 2 12 -4 10 -2 15 3 11 5 -3 10 2 11
11 2 32 28 113 35 107 16 -16 -18 220 -42 290 -10 29 -16 56 -13 59 4 3 1 6
-6 6 -7 0 -9 5 -6 10 3 6 2 10 -3 10 -5 0 -22 19 -37 42 -36 55 -114 138 -130
138 -6 0 -40 -30 -76 -67z m168 -48 c57 -75 86 -138 108 -239 37 -168 0 -316
-103 -406 -71 -63 -96 -74 -130 -56 -42 22 -121 111 -145 164 -15 35 -22 73
-25 147 -7 173 42 316 149 438 l52 58 24 -23 c14 -13 45 -50 70 -83z"/>
<path d="M446 1232 c-4 -6 1 -37 9 -69 9 -32 18 -65 19 -73 2 -13 35 -76 91
-169 24 -40 139 -127 225 -171 59 -30 207 -80 237 -80 14 0 22 -4 19 -9 -8
-13 42 0 54 14 7 9 1 40 -24 111 -19 54 -32 103 -29 108 4 5 1 6 -5 2 -7 -4
-12 -3 -12 2 0 6 -16 34 -36 63 -20 30 -37 59 -37 66 0 7 -4 10 -8 7 -4 -2
-16 7 -27 21 -11 14 -23 25 -27 25 -14 0 -64 48 -57 55 4 4 3 6 -3 4 -5 -1
-44 14 -85 34 -41 20 -80 37 -87 37 -7 0 -13 4 -13 8 0 4 -8 8 -17 9 -10 1
-54 5 -99 9 -55 4 -83 3 -88 -4z m159 -24 c147 -30 319 -156 392 -286 37 -66
99 -230 90 -239 -10 -9 -133 19 -206 49 -150 59 -252 134 -325 241 -35 50 -76
152 -91 224 l-7 33 49 -6 c26 -3 71 -10 98 -16z"/>
<path d="M1815 1230 c-22 -5 -61 -17 -87 -28 -25 -11 -50 -17 -54 -14 -4 4 -4
2 -1 -4 5 -8 -36 -37 -50 -36 -2 1 -113 -111 -113 -114 0 -1 -15 -25 -34 -52
-19 -28 -42 -71 -51 -96 -10 -26 -21 -46 -26 -46 -5 0 -6 -6 -3 -14 3 -8 -1
-27 -10 -43 -8 -16 -16 -47 -18 -69 l-3 -39 62 2 c33 2 96 14 139 27 43 14 82
22 87 19 6 -3 7 -1 3 5 -4 7 -3 12 2 12 5 0 33 16 61 35 28 20 51 32 51 29 0
-4 7 -1 15 6 8 7 12 16 10 21 -3 4 1 11 8 16 8 4 30 29 49 55 20 26 39 45 42
42 3 -2 4 -1 2 2 -2 3 9 33 25 67 16 34 32 77 35 95 3 17 9 32 13 32 3 0 6 21
6 48 l0 47 -60 2 c-33 1 -78 -2 -100 -7z m151 -25 c-3 -9 -13 -44 -22 -78 -46
-180 -177 -328 -347 -392 -62 -23 -208 -57 -215 -50 -9 8 43 152 84 234 95
191 254 298 443 300 53 1 62 -2 57 -14z"/>
</g>
</svg>
