<?xml version="1.0" encoding="UTF-8"?>
<!DOCTYPE svg PUBLIC "-//W3C//DTD SVG 1.1//EN" "http://www.w3.org/Graphics/SVG/1.1/DTD/svg11.dtd">
<svg xmlns="http://www.w3.org/2000/svg" version="1.1" width="72px" height="72px" style="shape-rendering:geometricPrecision; text-rendering:geometricPrecision; image-rendering:optimizeQuality; fill-rule:evenodd; clip-rule:evenodd" xmlns:xlink="http://www.w3.org/1999/xlink">
<g><path style="opacity:1" fill="#fbf8f0" d="M -0.5,-0.5 C 11.5,-0.5 23.5,-0.5 35.5,-0.5C 35.5774,0.749754 36.244,1.58309 37.5,2C 37.2716,2.39877 36.9382,2.56544 36.5,2.5C 30.2162,4.01111 26.3829,8.01111 25,14.5C 22.7793,22.4293 24.9459,28.7627 31.5,33.5C 32.4841,36.4281 32.8174,39.4281 32.5,42.5C 30.3589,39.5282 27.6922,37.0282 24.5,35C 21.6883,33.4511 18.6883,32.6178 15.5,32.5C 13.6309,31.8354 11.6309,31.1687 9.5,30.5C 9,29.5 8.5,28.5 8,27.5C 6.0372,30.9464 4.70387,30.9464 4,27.5C 3.74759,29.378 3.08092,31.378 2,33.5C 1.58309,32.244 0.749754,31.5774 -0.5,31.5C -0.5,20.8333 -0.5,10.1667 -0.5,-0.5 Z"/></g>
<g><path style="opacity:1" fill="#fcf8f0" d="M 35.5,-0.5 C 47.5,-0.5 59.5,-0.5 71.5,-0.5C 71.5,23.5 71.5,47.5 71.5,71.5C 64.8333,71.5 58.1667,71.5 51.5,71.5C 53.0949,68.8961 52.4283,66.7295 49.5,65C 51.4429,61.6676 52.6095,61.8342 53,65.5C 54.473,65.8679 55.973,65.3679 57.5,64C 55.1671,62.7574 54.5004,61.0907 55.5,59C 53.7148,57.8372 51.7148,57.1705 49.5,57C 48.7476,56.3292 48.4142,55.4959 48.5,54.5C 56.5008,49.835 60.3342,42.835 60,33.5C 50.6134,30.9465 43.1134,33.6131 37.5,41.5C 37.3359,38.8127 37.5026,36.146 38,33.5C 43.0336,30.4531 45.5336,25.9531 45.5,20C 44.97,12.7702 41.97,6.93692 36.5,2.5C 36.9382,2.56544 37.2716,2.39877 37.5,2C 36.244,1.58309 35.5774,0.749754 35.5,-0.5 Z"/></g>
<g><path style="opacity:1" fill="#fbf7f0" d="M 15.5,32.5 C 13.1667,32.5 10.8333,32.5 8.5,32.5C 7.96738,38.8943 9.63405,44.561 13.5,49.5C 12.603,50.5981 11.7697,50.5981 11,49.5C 10.6827,51.3008 10.016,51.6341 9,50.5C 8.34202,52.108 8.84202,53.2747 10.5,54C 9.7801,56.1223 8.61343,56.6223 7,55.5C 6.38277,56.4491 6.54943,57.2825 7.5,58C 3.77406,59.0432 4.1074,59.5432 8.5,59.5C 8.34332,60.8734 8.50999,62.2068 9,63.5C 10.6169,62.4642 10.7836,61.2975 9.5,60C 13.5,59.3333 13.5,58.6667 9.5,58C 10.7932,57.51 12.1266,57.3433 13.5,57.5C 13.6399,59.1238 12.9733,60.2904 11.5,61C 12.8333,62 12.8333,63 11.5,64C 13.8385,66.2689 13.1718,67.7689 9.5,68.5C 10.1272,69.4168 10.4606,70.4168 10.5,71.5C 6.83333,71.5 3.16667,71.5 -0.5,71.5C -0.5,58.1667 -0.5,44.8333 -0.5,31.5C 0.749754,31.5774 1.58309,32.244 2,33.5C 3.08092,31.378 3.74759,29.378 4,27.5C 4.70387,30.9464 6.0372,30.9464 8,27.5C 8.5,28.5 9,29.5 9.5,30.5C 11.6309,31.1687 13.6309,31.8354 15.5,32.5 Z"/></g>
<g><path style="opacity:1" fill="#628473" d="M 36.5,2.5 C 41.97,6.93692 44.97,12.7702 45.5,20C 45.5336,25.9531 43.0336,30.4531 38,33.5C 37.5026,36.146 37.3359,38.8127 37.5,41.5C 37.4614,42.7562 37.9614,43.7562 39,44.5C 39.7697,43.4019 40.603,43.4019 41.5,44.5C 40.6373,46.4214 39.9707,48.4214 39.5,50.5C 38.8485,51.0906 38.1818,51.7573 37.5,52.5C 35.1354,51.1783 32.8021,51.1783 30.5,52.5C 30.1218,50.079 29.4552,47.7457 28.5,45.5C 30.4044,45.2624 31.7377,44.2624 32.5,42.5C 32.8174,39.4281 32.4841,36.4281 31.5,33.5C 24.9459,28.7627 22.7793,22.4293 25,14.5C 26.3829,8.01111 30.2162,4.01111 36.5,2.5 Z"/></g>
<g><path style="opacity:1" fill="#f6f4ec" d="M 33.5,7.5 C 38.3645,9.88006 40.6978,13.8801 40.5,19.5C 40.8564,24.4539 38.8564,28.1206 34.5,30.5C 28.5521,26.0642 27.0521,20.3975 30,13.5C 31.3937,11.6125 32.5604,9.61246 33.5,7.5 Z"/></g>
<g><path style="opacity:1" fill="#668777" d="M 15.5,32.5 C 18.6883,32.6178 21.6883,33.4511 24.5,35C 27.6922,37.0282 30.3589,39.5282 32.5,42.5C 31.7377,44.2624 30.4044,45.2624 28.5,45.5C 24.7236,39.778 19.3903,36.9447 12.5,37C 15.2143,45.8749 21.2143,51.0416 30.5,52.5C 32.8021,51.1783 35.1354,51.1783 37.5,52.5C 38.1818,51.7573 38.8485,51.0906 39.5,50.5C 48.1439,50.9053 53.4772,46.572 55.5,37.5C 49.3122,36.5937 44.6455,38.927 41.5,44.5C 40.603,43.4019 39.7697,43.4019 39,44.5C 37.9614,43.7562 37.4614,42.7562 37.5,41.5C 43.1134,33.6131 50.6134,30.9465 60,33.5C 60.3342,42.835 56.5008,49.835 48.5,54.5C 44.9155,55.5828 41.2488,56.2494 37.5,56.5C 37.665,59.8499 37.4983,63.1832 37,66.5C 36.0475,68.5922 34.7141,68.9255 33,67.5C 32.5014,63.8484 32.3347,60.1817 32.5,56.5C 25.3172,56.3295 18.9839,53.9962 13.5,49.5C 9.63405,44.561 7.96738,38.8943 8.5,32.5C 10.8333,32.5 13.1667,32.5 15.5,32.5 Z"/></g>
<g><path style="opacity:1" fill="#f7f5ed" d="M 28.5,45.5 C 29.4552,47.7457 30.1218,50.079 30.5,52.5C 21.2143,51.0416 15.2143,45.8749 12.5,37C 19.3903,36.9447 24.7236,39.778 28.5,45.5 Z"/></g>
<g><path style="opacity:1" fill="#f9f6ef" d="M 39.5,50.5 C 39.9707,48.4214 40.6373,46.4214 41.5,44.5C 44.6455,38.927 49.3122,36.5937 55.5,37.5C 53.4772,46.572 48.1439,50.9053 39.5,50.5 Z"/></g>
<g><path style="opacity:1" fill="#fcf8f1" d="M 13.5,49.5 C 18.9839,53.9962 25.3172,56.3295 32.5,56.5C 32.3347,60.1817 32.5014,63.8484 33,67.5C 34.7141,68.9255 36.0475,68.5922 37,66.5C 37.4983,63.1832 37.665,59.8499 37.5,56.5C 41.2488,56.2494 44.9155,55.5828 48.5,54.5C 48.4142,55.4959 48.7476,56.3292 49.5,57C 51.7148,57.1705 53.7148,57.8372 55.5,59C 54.5004,61.0907 55.1671,62.7574 57.5,64C 55.973,65.3679 54.473,65.8679 53,65.5C 52.6095,61.8342 51.4429,61.6676 49.5,65C 52.4283,66.7295 53.0949,68.8961 51.5,71.5C 37.8333,71.5 24.1667,71.5 10.5,71.5C 10.4606,70.4168 10.1272,69.4168 9.5,68.5C 13.1718,67.7689 13.8385,66.2689 11.5,64C 12.8333,63 12.8333,62 11.5,61C 12.9733,60.2904 13.6399,59.1238 13.5,57.5C 12.1266,57.3433 10.7932,57.51 9.5,58C 13.5,58.6667 13.5,59.3333 9.5,60C 10.7836,61.2975 10.6169,62.4642 9,63.5C 8.50999,62.2068 8.34332,60.8734 8.5,59.5C 4.1074,59.5432 3.77406,59.0432 7.5,58C 6.54943,57.2825 6.38277,56.4491 7,55.5C 8.61343,56.6223 9.7801,56.1223 10.5,54C 8.84202,53.2747 8.34202,52.108 9,50.5C 10.016,51.6341 10.6827,51.3008 11,49.5C 11.7697,50.5981 12.603,50.5981 13.5,49.5 Z"/></g>
</svg>
